<svg xmlns="http://www.w3.org/2000/svg" viewBox="0 0 383.5 383.5"><path fill-rule="evenodd" clip-rule="evenodd" fill="#F60" d="M205.1 102.2c10 25.2 13.6 72.1 6.4 98.2-16 57.6-43.8 67.6-69.7 90.6-28.5 25.3-37.9 51.9-39.2 62.8-4.5 36.2 18.7 34.6 19.6 20.1 2.9-45.6 3.7-66.4 45.2-93.7 91.3-59.9 78-117.6 41.6-187.2-15.7-30-7.6-42.1-.8-67.2 5.8-21.5-8.7-31.7-18.6-22.3-9 8.6-6.4 39.1 1.9 68 2.7 9.3 10 21.4 13.6 30.7z"/><path fill-rule="evenodd" clip-rule="evenodd" fill="#212121" d="M123.6 296.9c2.8-2.9 7-8.5 10.2-11.4 25.9-22.9 52.2-31 68.2-88.6 5.2-18.8 4.8-47.1.4-71.6-22.7-5.7-72.1 42.2-78.8 171.6z"/><path fill-rule="evenodd" clip-rule="evenodd" fill="#F60" d="M238.6 77.3c-6.7.4-22.6.3-22.6 5 0 3.8 7.1 4.3 16 4.3 10.1-.4 38.5-2.7 49.7-2-9.8-6.5-32.7-7.3-43.1-7.3z"/><path fill-rule="evenodd" clip-rule="evenodd" fill="#212121" d="M172.8 76.2s-13.4-13-25.7-19.4c-8.2-4.2-16.6-3.5-18.8 2.2s3.6 11.9 12.6 14.3c13.2 3.5 31.9 2.9 31.9 2.9zm9-6.6S178 45.7 169.9 30c-5.3-10.5-15-15.8-21.8-11.3s-5.6 15.5 2 24.6c11.3 13.5 31.7 26.3 31.7 26.3zm24.6-4.2s17.4-7.7 27.7-17c6.8-6.2 8.8-14.7 3.9-19s-13.1-1.2-18.3 6.5c-7.9 11.4-13.3 29.5-13.3 29.5zm-55 304.6c-.1-11-15.5-30.8-6.6-63.6-7.4 7.4-18.3 41.2-6.4 65 5 10.1 13.1 4.8 13-1.4z"/></svg>